<svg width="36" height="36" viewBox="0 0 36 36" fill="none" xmlns="http://www.w3.org/2000/svg">
<g clip-path="url(#clip0_46888_14153)">
<path d="M18 35.9998C27.9411 35.9998 36 27.9409 36 17.9998C36 8.05863 27.9411 -0.000244141 18 -0.000244141C8.05887 -0.000244141 0 8.05863 0 17.9998C0 27.9409 8.05887 35.9998 18 35.9998Z" fill="#F0F0F0"/>
<path d="M36 17.9999C36 27.941 27.9411 35.9999 18 35.9999C8.05894 35.9999 0 27.941 0 17.9999C0 8.05885 18 17.9999 18 17.9999C18 17.9999 31.6238 17.9999 36 17.9999Z" fill="#D80027"/>
<path d="M0 17.9998C0 8.05869 8.05894 -0.000244141 18 -0.000244141V17.9998C18 17.9998 6.26084 17.9998 0 17.9998Z" fill="#0052B4"/>
<path d="M10.7147 6.26086L11.8803 9.84807H15.652L12.6006 12.065L13.7661 15.6522L10.7147 13.4352L7.66327 15.6522L8.82877 12.065L5.77734 9.84807H9.54912L10.7147 6.26086Z" fill="#F0F0F0"/>
</g>
<defs>
<clipPath id="clip0_46888_14153">
<rect width="36" height="36" fill="white"/>
</clipPath>
</defs>
</svg>
