<svg width="36" height="36" viewBox="0 0 36 36" fill="none" xmlns="http://www.w3.org/2000/svg">
<g clip-path="url(#clip0_46888_14851)">
<path d="M2.18848 9.39129L17.9999 10.9565L33.8112 9.39129C30.7583 3.7961 24.8226 0 17.9999 0C11.1771 0 5.24137 3.7961 2.18848 9.39129Z" fill="#D80027"/>
<path d="M2.18862 26.6087L18 28.1739L33.8114 26.6087C35.2067 24.0514 36 21.1183 36 18L18 16.4348L0 18C0 21.1183 0.793336 24.0514 2.18862 26.6087Z" fill="#FFDA44"/>
<path d="M2.18862 9.3913C0.793336 11.9486 0 14.8816 0 18H36C36 14.8816 35.2067 11.9486 33.8114 9.3913H18H2.18862Z" fill="#0052B4"/>
<path d="M17.9999 36C24.8226 36 30.7583 32.2039 33.8112 26.6087H2.18848C5.24137 32.2039 11.1771 36 17.9999 36Z" fill="#6DA544"/>
</g>
<defs>
<clipPath id="clip0_46888_14851">
<rect width="36" height="36" fill="white"/>
</clipPath>
</defs>
</svg>
