<svg width="36" height="36" viewBox="0 0 36 36" fill="none" xmlns="http://www.w3.org/2000/svg">
<g clip-path="url(#clip0_46888_15383)">
<path d="M18 35.9998C27.9411 35.9998 36 27.9409 36 17.9998C36 8.05863 27.9411 -0.000244141 18 -0.000244141C8.05887 -0.000244141 0 8.05863 0 17.9998C0 27.9409 8.05887 35.9998 18 35.9998Z" fill="#F0F0F0"/>
<path d="M5.27207 30.7279C-1.75736 23.6984 -1.75736 12.3015 5.27207 5.27197C5.27157 5.27275 15.6522 17.9999 15.6522 17.9999L5.27207 30.7279Z" fill="black"/>
<path d="M15.6522 17.9999L2.38731 9.03601C1.97605 9.75088 1.61338 10.497 1.30176 11.2693L8.01723 18L1.30197 24.731C1.61331 25.5028 1.97563 26.2484 2.38661 26.9628L15.6522 17.9999Z" fill="#FFDA44"/>
<path d="M35.848 15.6522H15.652L5.27224 5.27234C4.1537 6.39087 3.18192 7.65586 2.38767 9.03617L11.3342 18L2.38696 26.9628C3.18121 28.3434 4.15342 29.6088 5.27224 30.7276L15.652 20.3478H35.848C35.948 19.5793 36.0003 18.7958 36.0003 18C36.0003 17.2043 35.948 16.4207 35.848 15.6522Z" fill="#6DA544"/>
<path d="M7.04102 32.2788C10.0763 34.612 13.8758 36 18.0001 36C26.3166 36 33.3145 30.3595 35.38 22.6957H16.6243L7.04102 32.2788Z" fill="#0052B4"/>
<path d="M35.38 13.3043C33.3145 5.64054 26.3166 0 18.0001 0C13.8758 0 10.0763 1.38804 7.04102 3.72115L16.6242 13.3043H35.38Z" fill="#D80027"/>
</g>
<defs>
<clipPath id="clip0_46888_15383">
<rect width="36" height="36" fill="white"/>
</clipPath>
</defs>
</svg>
