<svg width="36" height="36" viewBox="0 0 36 36" fill="none" xmlns="http://www.w3.org/2000/svg">
<g clip-path="url(#clip0_46888_14583)">
<path d="M18 35.9998C27.9411 35.9998 36 27.9409 36 17.9998C36 8.05863 27.9411 -0.000244141 18 -0.000244141C8.05887 -0.000244141 0 8.05863 0 17.9998C0 27.9409 8.05887 35.9998 18 35.9998Z" fill="#D80027"/>
<path d="M19.8586 13.6173C19.4495 15.3188 18.7227 14.9943 18.366 16.4782C16.2648 15.973 14.9708 13.8601 15.476 11.7588C15.981 9.65766 18.0941 8.36363 20.1953 8.86883C19.4818 11.8365 20.2246 12.0955 19.8586 13.6173Z" fill="#F0F0F0"/>
<path d="M14.4059 14.8782C15.8978 15.7929 15.3645 16.3841 16.6654 17.1819C15.5356 19.0242 13.1264 19.6018 11.2841 18.4721C9.4418 17.3424 8.86404 14.933 9.99382 13.0907C12.5958 14.6862 13.0715 14.06 14.4059 14.8782Z" fill="#F0F0F0"/>
<path d="M13.9207 20.4534C15.2517 19.3173 15.6489 20.0071 16.8097 19.0164C18.2128 20.6601 18.0176 23.13 16.374 24.5331C14.7302 25.9362 12.2603 25.7408 10.8574 24.0972C13.1787 22.1156 12.7301 21.4695 13.9207 20.4534Z" fill="#F0F0F0"/>
<path d="M19.0725 22.6381C18.4031 21.0212 19.1819 20.8563 18.5984 19.4464C20.5952 18.62 22.884 19.5688 23.7105 21.5656C24.5368 23.5624 23.5879 25.8511 21.5911 26.6776C20.4241 23.8574 19.6711 24.0845 19.0725 22.6381Z" fill="#F0F0F0"/>
<path d="M22.7426 18.4132C20.998 18.5501 21.0817 17.7583 19.5605 17.8777C19.3916 15.7234 21.0013 13.8397 23.1557 13.6706C25.3101 13.5019 27.1938 15.1115 27.3627 17.266C24.3198 17.5046 24.303 18.2909 22.7426 18.4132Z" fill="#F0F0F0"/>
</g>
<defs>
<clipPath id="clip0_46888_14583">
<rect width="36" height="36" fill="white"/>
</clipPath>
</defs>
</svg>
