<svg width="36" height="36" viewBox="0 0 36 36" fill="none" xmlns="http://www.w3.org/2000/svg">
<g clip-path="url(#clip0_46888_15551)">
<path d="M18 35.9998C27.9411 35.9998 36 27.9409 36 17.9998C36 8.05863 27.9411 -0.000244141 18 -0.000244141C8.05887 -0.000244141 0 8.05863 0 17.9998C0 27.9409 8.05887 35.9998 18 35.9998Z" fill="#FFDA44"/>
<path d="M28.9565 8.60847C28.7951 9.38437 28.7217 10.2107 28.7217 11.0345C28.7217 15.783 31.5525 19.8928 35.6091 21.743C35.8646 20.5353 36 19.2834 36 17.9998C36 8.05869 27.9411 -0.000244141 18 -0.000244141C8.05894 -0.000244141 0 8.05869 0 17.9998C0 27.9408 8.05894 35.9998 18 35.9998C24.1651 35.9998 29.6056 32.8995 32.8497 28.1737H10.1739V25.8259H34.2139C34.4599 25.3171 34.6822 24.7948 34.8805 24.2607H10.1739L28.9565 8.60847Z" fill="#0052B4"/>
<path d="M13.2242 9.39136L13.6127 10.5871H14.8699L13.8528 11.3261L14.2414 12.5218L13.2242 11.7829L12.2071 12.5218L12.5956 11.3261L11.5784 10.5871H12.8356L13.2242 9.39136Z" fill="#F0F0F0"/>
<path d="M8.1167 18L8.60242 19.4948H10.1739L8.90245 20.4183L9.38816 21.913L8.1167 20.9893L6.84531 21.913L7.33096 20.4183L6.05957 19.4948H7.63105L8.1167 18Z" fill="#F0F0F0"/>
<path d="M8.1167 5.47827L8.60242 6.97304H10.1739L8.90245 7.8966L9.38816 9.3913L8.1167 8.46754L6.84531 9.3913L7.33096 7.8966L6.05957 6.97304H7.63105L8.1167 5.47827Z" fill="#F0F0F0"/>
<path d="M4.20411 12.5217L4.68982 14.0165H6.26124L4.98985 14.9401L5.47557 16.4348L4.20411 15.511L2.93271 16.4348L3.41836 14.9401L2.14697 14.0165H3.71839L4.20411 12.5217Z" fill="#F0F0F0"/>
</g>
<defs>
<clipPath id="clip0_46888_15551">
<rect width="36" height="36" fill="white"/>
</clipPath>
</defs>
</svg>
